<mxfile host="65bd71144e">
    <diagram id="iX1U3FpdWa92VZpp74Ui" name="Page-1">
        <mxGraphModel dx="671" dy="524" grid="1" gridSize="10" guides="1" tooltips="1" connect="1" arrows="1" fold="1" page="1" pageScale="1" pageWidth="827" pageHeight="1169" math="0" shadow="0">
            <root>
                <mxCell id="0"/>
                <mxCell id="1" parent="0"/>
                <mxCell id="6" value="Pokemon" style="swimlane;fontStyle=1;align=center;verticalAlign=top;childLayout=stackLayout;horizontal=1;startSize=26;horizontalStack=0;resizeParent=1;resizeParentMax=0;resizeLast=0;collapsible=1;marginBottom=0;" parent="1" vertex="1">
                    <mxGeometry x="240" y="70" width="200" height="230" as="geometry"/>
                </mxCell>
                <mxCell id="7" value="- Id: int&#10;- Nombre: str&#10;- Arma: enum arma&#10;- Ptos_salud: int&#10;- Id_ataque: int&#10;- Id_defensa: int" style="text;strokeColor=none;fillColor=none;align=left;verticalAlign=top;spacingLeft=4;spacingRight=4;overflow=hidden;rotatable=0;points=[[0,0.5],[1,0.5]];portConstraint=eastwest;spacing=7;spacingTop=-1;fontFamily=century gothic;fontSource=https%3A%2F%2Ffonts.googleapis.com%2Fcss%3Ffamily%3Dcentury%2Bgothic;" parent="6" vertex="1">
                    <mxGeometry y="26" width="200" height="104" as="geometry"/>
                </mxCell>
                <mxCell id="8" value="" style="line;strokeWidth=1;fillColor=none;align=left;verticalAlign=middle;spacingTop=-1;spacingLeft=3;spacingRight=3;rotatable=0;labelPosition=right;points=[];portConstraint=eastwest;strokeColor=inherit;" parent="6" vertex="1">
                    <mxGeometry y="130" width="200" height="18" as="geometry"/>
                </mxCell>
                <mxCell id="9" value="+ setnombre(nombre)&#10;+ setarma(arma)&#10;+ setPtos_salud(Ptos_salud)&#10;+ setId_ataque(Id_ataque)&#10;+ setId_defensa(Id_defensa)" style="text;strokeColor=none;fillColor=none;align=left;verticalAlign=top;spacingLeft=4;spacingRight=4;overflow=hidden;rotatable=0;points=[[0,0.5],[1,0.5]];portConstraint=eastwest;fontFamily=century gothic;fontSource=https%3A%2F%2Ffonts.googleapis.com%2Fcss%3Ffamily%3Dcentury%2Bgothic;" parent="6" vertex="1">
                    <mxGeometry y="148" width="200" height="82" as="geometry"/>
                </mxCell>
            </root>
        </mxGraphModel>
    </diagram>
</mxfile>
